<svg xmlns="http://www.w3.org/2000/svg" viewBox="0 0 1440 900" role="img" aria-label="Sunny hills with friendly learning characters">
  <defs>
    <linearGradient id="sky" x1="0" y1="0" x2="0" y2="1">
      <stop offset="0%" stop-color="#7dd3fc"/>
      <stop offset="100%" stop-color="#38bdf8"/>
    </linearGradient>
    <linearGradient id="hill-back" x1="0" y1="0" x2="1" y2="1">
      <stop offset="0%" stop-color="#86efac"/>
      <stop offset="100%" stop-color="#4ade80"/>
    </linearGradient>
    <linearGradient id="hill-front" x1="0" y1="0" x2="1" y2="1">
      <stop offset="0%" stop-color="#4ade80"/>
      <stop offset="100%" stop-color="#22c55e"/>
    </linearGradient>
  </defs>
  <rect width="1440" height="900" fill="url(#sky)"/>
  <circle cx="220" cy="160" r="88" fill="#fbbf24" stroke="#1e293b" stroke-width="6"/>
  <ellipse cx="720" cy="520" rx="520" ry="200" fill="url(#hill-back)" stroke="#1e293b" stroke-width="6"/>
  <path d="M0 620 C240 520 420 700 720 640 C980 590 1180 520 1440 600 L1440 900 L0 900 Z" fill="url(#hill-front)" stroke="#1e293b" stroke-width="6"/>
  <path d="M120 560 Q140 540 160 560" fill="none" stroke="#fff" stroke-width="8" stroke-linecap="round"/>
  <path d="M300 500 Q320 480 340 500" fill="none" stroke="#fff" stroke-width="8" stroke-linecap="round"/>
  <g transform="translate(180 430)">
    <ellipse cx="70" cy="150" rx="55" ry="18" fill="#1e293b" opacity="0.15"/>
    <rect x="35" y="95" width="70" height="70" rx="18" fill="#f87171" stroke="#1e293b" stroke-width="6"/>
    <circle cx="70" cy="55" r="42" fill="#f87171" stroke="#1e293b" stroke-width="6"/>
    <path d="M28 40 C40 10 100 10 112 40" fill="#38bdf8" stroke="#1e293b" stroke-width="6"/>
    <circle cx="55" cy="58" r="6" fill="#1e293b"/>
    <circle cx="85" cy="58" r="6" fill="#1e293b"/>
    <path d="M58 78 Q70 90 82 78" fill="none" stroke="#1e293b" stroke-width="5" stroke-linecap="round"/>
    <path d="M95 70 L125 35" fill="none" stroke="#1e293b" stroke-width="6" stroke-linecap="round"/>
    <circle cx="128" cy="32" r="14" fill="#f87171" stroke="#1e293b" stroke-width="5"/>
  </g>
  <g transform="translate(620 360)">
    <ellipse cx="100" cy="210" rx="70" ry="20" fill="#1e293b" opacity="0.15"/>
    <ellipse cx="100" cy="120" rx="78" ry="68" fill="#f9a8d4" stroke="#1e293b" stroke-width="6"/>
    <circle cx="72" cy="108" r="18" fill="none" stroke="#1e293b" stroke-width="6"/>
    <circle cx="128" cy="108" r="18" fill="none" stroke="#1e293b" stroke-width="6"/>
    <line x1="90" y1="108" x2="110" y2="108" stroke="#1e293b" stroke-width="6"/>
    <path d="M78 145 Q100 160 122 145" fill="none" stroke="#1e293b" stroke-width="5" stroke-linecap="round"/>
    <rect x="55" y="175" width="90" height="55" rx="10" fill="#94a3b8" stroke="#1e293b" stroke-width="6"/>
    <rect x="62" y="182" width="76" height="38" rx="4" fill="#fff" stroke="#1e293b" stroke-width="3"/>
    <ellipse cx="55" cy="235" rx="16" ry="10" fill="#38bdf8" stroke="#1e293b" stroke-width="5"/>
    <ellipse cx="145" cy="235" rx="16" ry="10" fill="#38bdf8" stroke="#1e293b" stroke-width="5"/>
    <path d="M150 95 L150 25" fill="none" stroke="#1e293b" stroke-width="6" stroke-linecap="round"/>
    <path d="M130 40 L150 20 L170 40 Z" fill="#fde047" stroke="#1e293b" stroke-width="5"/>
    <ellipse cx="150" cy="18" rx="28" ry="24" fill="#fef08a" stroke="#1e293b" stroke-width="5"/>
    <path d="M150 6 L154 14 L163 14 L156 20 L159 29 L150 24 L141 29 L144 20 L137 14 L146 14 Z" fill="#fbbf24" stroke="#1e293b" stroke-width="2"/>
  </g>
</svg>
