<svg xmlns="http://www.w3.org/2000/svg" width="1600" height="900" viewBox="0 0 1600 900" fill="none">
  <rect width="1600" height="900" fill="#FFFFFF"/>
  <g stroke="#111111" stroke-width="11" stroke-linecap="round" stroke-linejoin="round">
    <path d="M420 610C420 540 470 495 540 480L585 340C615 275 670 240 745 230H915C990 235 1045 275 1075 340L1120 480C1185 492 1235 540 1235 610V635C1235 680 1198 715 1150 715H500C452 715 420 680 420 635V610Z"/>
    <path d="M645 492H770"/>
    <path d="M830 492H955"/>
    <path d="M785 500V690"/>
    <path d="M635 360C650 320 680 295 725 295H790C810 295 820 310 820 330V450C820 470 810 482 790 482H650C625 482 613 465 622 440L635 360Z"/>
    <path d="M850 330C850 310 860 295 880 295H945C990 295 1020 320 1035 360L1048 440C1057 465 1045 482 1020 482H880C860 482 850 470 850 450V330Z"/>
    <circle cx="570" cy="710" r="82"/>
    <circle cx="1080" cy="710" r="82"/>
    <circle cx="570" cy="710" r="28"/>
    <circle cx="1080" cy="710" r="28"/>
    <circle cx="455" cy="620" r="20"/>
    <circle cx="1200" cy="620" r="20"/>
  </g>
</svg>
